<?xml version="1.0" standalone="no"?><!DOCTYPE svg PUBLIC "-//W3C//DTD SVG 1.1//EN" "http://www.w3.org/Graphics/SVG/1.1/DTD/svg11.dtd"><svg t="1539665894396" class="icon" style="" viewBox="0 0 1024 1024" version="1.1" xmlns="http://www.w3.org/2000/svg" p-id="4296" xmlns:xlink="http://www.w3.org/1999/xlink" width="32" height="32"><defs><style type="text/css"></style></defs><path d="M676.58 511.341c0 91.537-74.204 165.742-165.741 165.742-91.537 0-165.742-74.205-165.742-165.742 0-91.536 74.205-165.741 165.742-165.741C602.376 345.6 676.58 419.805 676.58 511.341z" p-id="4297"></path><path d="M511.842 957.081c-60.433 0-119.072-11.842-174.289-35.196-53.32-22.552-101.2-54.832-142.312-95.943S121.85 736.949 99.298 683.63c-23.354-55.217-35.196-113.855-35.196-174.289 0-60.433 11.842-119.072 35.196-174.289 22.552-53.32 54.833-101.2 95.944-142.312s88.992-73.392 142.312-95.944c55.216-23.354 113.855-35.196 174.289-35.196 60.434 0 119.072 11.842 174.289 35.196 53.319 22.552 101.2 54.833 142.312 95.944s73.392 88.992 95.943 142.312c23.354 55.216 35.196 113.855 35.196 174.289 0 60.434-11.842 119.072-35.196 174.289-22.552 53.319-54.832 101.2-95.943 142.312s-88.992 73.392-142.312 95.943C630.914 945.239 572.275 957.081 511.842 957.081zM511.842 112.624c-218.75 0-396.717 177.966-396.717 396.717 0 218.75 177.966 396.717 396.717 396.717 218.75 0 396.717-177.967 396.717-396.717C908.559 290.59 730.592 112.624 511.842 112.624z" p-id="4298"></path></svg>